<svg width="25" height="25" viewBox="0 0 25 25" fill="none" xmlns="http://www.w3.org/2000/svg">
<path d="M12.5 0C12.9144 0 13.3118 0.16462 13.6049 0.457646C13.8979 0.750671 14.0625 1.1481 14.0625 1.5625V10.9375H23.4375C23.8519 10.9375 24.2493 11.1021 24.5424 11.3951C24.8354 11.6882 25 12.0856 25 12.5C25 12.9144 24.8354 13.3118 24.5424 13.6049C24.2493 13.8979 23.8519 14.0625 23.4375 14.0625H14.0625V23.4375C14.0625 23.8519 13.8979 24.2493 13.6049 24.5424C13.3118 24.8354 12.9144 25 12.5 25C12.0856 25 11.6882 24.8354 11.3951 24.5424C11.1021 24.2493 10.9375 23.8519 10.9375 23.4375V14.0625H1.5625C1.1481 14.0625 0.750671 13.8979 0.457646 13.6049C0.16462 13.3118 0 12.9144 0 12.5C0 12.0856 0.16462 11.6882 0.457646 11.3951C0.750671 11.1021 1.1481 10.9375 1.5625 10.9375H10.9375V1.5625C10.9375 1.1481 11.1021 0.750671 11.3951 0.457646C11.6882 0.16462 12.0856 0 12.5 0V0Z" fill="white"/>
</svg>
