<svg width="25" height="20" viewBox="0 0 25 20" fill="none" xmlns="http://www.w3.org/2000/svg">
<path d="M3.30078 2.725C3.30078 2.2675 3.48252 1.82874 3.80602 1.50524C4.12952 1.18174 4.56828 1 5.02578 1H19.9758C20.4333 1 20.872 1.18174 21.1955 1.50524C21.519 1.82874 21.7008 2.2675 21.7008 2.725V9.05H3.30078V2.725Z" stroke="#484848" stroke-width="2" stroke-linecap="round" stroke-linejoin="round"/>
<path d="M2.15039 15.95V18.25" stroke="#484848" stroke-width="2" stroke-linecap="round" stroke-linejoin="round"/>
<path d="M22.8496 15.95V18.25" stroke="#484848" stroke-width="2" stroke-linecap="round" stroke-linejoin="round"/>
<path d="M15.3754 6.17497H9.62539C9.16789 6.17497 8.72913 6.35671 8.40563 6.68021C8.08213 7.00371 7.90039 7.44247 7.90039 7.89997V9.04997H17.1004V7.89997C17.1004 7.44247 16.9187 7.00371 16.5952 6.68021C16.2717 6.35671 15.8329 6.17497 15.3754 6.17497Z" stroke="#484848" stroke-width="2" stroke-linecap="round" stroke-linejoin="round"/>
<path d="M1 10.775C1 10.3175 1.18174 9.87871 1.50524 9.55521C1.82874 9.23171 2.2675 9.04997 2.725 9.04997H22.275C22.7325 9.04997 23.1713 9.23171 23.4948 9.55521C23.8183 9.87871 24 10.3175 24 10.775V15.95H1V10.775Z" stroke="#484848" stroke-width="2" stroke-linecap="round" stroke-linejoin="round"/>
</svg>
