<svg width="27" height="27" viewBox="0 0 27 27" fill="none" xmlns="http://www.w3.org/2000/svg">
<path d="M4.21875 11.8125L6.21105 7.16397C6.53537 6.40723 7.36172 5.90625 8.2851 5.90625H18.7149C19.6383 5.90625 20.4646 6.40723 20.7889 7.16397L22.7812 11.8125" stroke="#484848" stroke-width="1.875" stroke-linecap="round" stroke-linejoin="round"/>
<path d="M4.21875 11.8125H22.7812V19.4062H4.21875V11.8125Z" stroke="#484848" stroke-width="1.875" stroke-linecap="round" stroke-linejoin="round"/>
<path d="M5.90625 19.4062V21.0938H4.21875V19.4062" stroke="#484848" stroke-width="1.875" stroke-linecap="round" stroke-linejoin="round"/>
<path d="M22.7812 19.4062V21.0938H21.0938V19.4062" stroke="#484848" stroke-width="1.875" stroke-linecap="round" stroke-linejoin="round"/>
<path d="M7.59375 16.0312C8.05974 16.0312 8.4375 15.6535 8.4375 15.1875C8.4375 14.7215 8.05974 14.3438 7.59375 14.3438C7.12776 14.3438 6.75 14.7215 6.75 15.1875C6.75 15.6535 7.12776 16.0312 7.59375 16.0312Z" stroke="#484848" stroke-width="1.875" stroke-linecap="round" stroke-linejoin="round"/>
<path d="M19.4062 16.0312C19.8722 16.0312 20.25 15.6535 20.25 15.1875C20.25 14.7215 19.8722 14.3438 19.4062 14.3438C18.9403 14.3438 18.5625 14.7215 18.5625 15.1875C18.5625 15.6535 18.9403 16.0312 19.4062 16.0312Z" stroke="#484848" stroke-width="1.875" stroke-linecap="round" stroke-linejoin="round"/>
</svg>
