<svg width="27" height="27" viewBox="0 0 27 27" fill="none" xmlns="http://www.w3.org/2000/svg">
<path d="M17.9534 22.5519H4.4995V4.50462H12.3509V10.1071H17.9534V11.2501H20.2607V9.01587L17.9545 6.70737L15.7495 4.50462L13.5107 2.26587H4.51075C3.91568 2.26795 3.34576 2.50604 2.92604 2.92786C2.50632 3.34969 2.2711 3.9208 2.27199 4.51587L2.26074 22.5159C2.25985 23.1109 2.49507 23.6821 2.91479 24.1039C3.33451 24.5257 3.90443 24.7638 4.4995 24.7659H20.2607V22.5159L17.9534 22.5519Z" fill="#484848"/>
<path d="M23.918 20.2659L25.8867 13.5159H24.1992L23.0742 17.3746L21.9492 13.5159H20.2617L22.2305 20.2659H23.918Z" fill="#484848"/>
<path d="M11.2617 13.5159H7.88672C7.58862 13.5168 7.30299 13.6356 7.09221 13.8464C6.88142 14.0571 6.76261 14.3428 6.76172 14.6409V19.1409C6.76261 19.439 6.88142 19.7246 7.09221 19.9354C7.30299 20.1462 7.58862 20.265 7.88672 20.2659H11.2617C11.5598 20.265 11.8454 20.1462 12.0562 19.9354C12.267 19.7246 12.3858 19.439 12.3867 19.1409V18.0159H10.6992V18.5784H8.44922V15.2034H10.6992V15.7659H12.3867V14.6409C12.3858 14.3428 12.267 14.0571 12.0562 13.8464C11.8454 13.6356 11.5598 13.5168 11.2617 13.5159Z" fill="#484848"/>
<path d="M19.1367 15.2101V13.5159H14.6367C14.3383 13.5159 14.0522 13.6344 13.8412 13.8454C13.6302 14.0564 13.5117 14.3425 13.5117 14.6409V16.6175C13.5117 16.9159 13.6302 17.202 13.8412 17.413C14.0522 17.624 14.3383 17.7425 14.6367 17.7425H17.4605V18.5784H13.5117V20.2737H18.0117C18.3101 20.2737 18.5962 20.1552 18.8072 19.9442C19.0182 19.7333 19.1367 19.4471 19.1367 19.1487V17.1721C19.1367 16.8738 19.0182 16.5876 18.8072 16.3766C18.5962 16.1656 18.3101 16.0471 18.0117 16.0471H15.188V15.2112L19.1367 15.2101Z" fill="#484848"/>
</svg>
