<svg width="204" height="204" viewBox="0 0 204 204" fill="none" xmlns="http://www.w3.org/2000/svg">
<path d="M146.625 0H57.375C46.8562 0 38.25 8.60625 38.25 19.125V184.875C38.25 195.394 46.8562 204 57.375 204H146.625C157.144 204 165.75 195.394 165.75 184.875V19.125C165.75 8.60625 157.144 0 146.625 0ZM76.5 9.5625H127.5V15.9375H76.5V9.5625ZM102 191.25C98.6185 191.25 95.3755 189.907 92.9844 187.516C90.5933 185.125 89.25 181.882 89.25 178.5C89.25 175.118 90.5933 171.875 92.9844 169.484C95.3755 167.093 98.6185 165.75 102 165.75C105.382 165.75 108.625 167.093 111.016 169.484C113.407 171.875 114.75 175.118 114.75 178.5C114.75 181.882 113.407 185.125 111.016 187.516C108.625 189.907 105.382 191.25 102 191.25ZM153 153H51V25.5H153V153Z" fill="#9A9A9A"/>
</svg>
