<svg width="26" height="26" viewBox="0 0 26 26" fill="none" xmlns="http://www.w3.org/2000/svg">
<path d="M12.9993 18.4167L14.0827 16.2501V10.6796C15.9471 10.1953 17.3327 8.51292 17.3327 6.50008C17.3327 4.11025 15.3892 2.16675 12.9993 2.16675C10.6095 2.16675 8.66602 4.11025 8.66602 6.50008C8.66602 8.51292 10.0516 10.1953 11.916 10.6796V16.2501L12.9993 18.4167Z" fill="#484848"/>
<path d="M17.6219 11.4432L17.0445 13.5319C19.8514 14.3076 21.666 15.7993 21.666 17.3333C21.666 19.383 18.1073 21.6666 12.9993 21.6666C7.89143 21.6666 4.33268 19.383 4.33268 17.3333C4.33268 15.7993 6.14727 14.3076 8.95527 13.5308L8.37785 11.4421C4.5461 12.5016 2.16602 14.7582 2.16602 17.3333C2.16602 20.9776 6.9251 23.8333 12.9993 23.8333C19.0736 23.8333 23.8327 20.9776 23.8327 17.3333C23.8327 14.7582 21.4526 12.5016 17.6219 11.4432Z" fill="#484848"/>
</svg>
