<svg width="28" height="28" viewBox="0 0 28 28" fill="none" xmlns="http://www.w3.org/2000/svg">
<path d="M5.96412 25.8599L24.439 15.514C24.7104 15.362 24.9364 15.1404 25.0937 14.872C25.2511 14.6036 25.334 14.2981 25.334 13.987C25.334 13.6759 25.2511 13.3704 25.0937 13.102C24.9364 12.8337 24.7104 12.612 24.439 12.46L5.96412 2.11403C5.65326 1.93993 5.29667 1.86486 4.942 1.89885C4.58733 1.93285 4.25149 2.07429 3.97936 2.30428C3.70724 2.53426 3.51179 2.84183 3.41916 3.18588C3.32652 3.52992 3.34111 3.89404 3.46096 4.22957L6.94565 13.9869L3.46096 23.7445C3.39237 23.9355 3.35718 24.137 3.35695 24.34C3.35868 24.6447 3.43981 24.9436 3.59234 25.2074C3.74487 25.4711 3.96353 25.6905 4.22673 25.844C4.48994 25.9974 4.7886 26.0796 5.09326 26.0824C5.39791 26.0852 5.69804 26.0085 5.96401 25.8599L5.96412 25.8599ZM8.49156 14.862L14.8749 14.862C15.107 14.862 15.3295 14.7698 15.4936 14.6057C15.6577 14.4416 15.7499 14.2191 15.7499 13.987C15.7499 13.755 15.6577 13.5324 15.4936 13.3683C15.3295 13.2042 15.107 13.112 14.8749 13.112L8.49156 13.112L5.1099 3.64146L23.5841 13.987L5.10935 24.3321L8.49156 14.862Z" fill="white"/>
</svg>
